<svg xmlns="http://www.w3.org/2000/svg" version="1.1" xmlns:xlink="http://www.w3.org/1999/xlink" xmlns:svgjs="http://svgjs.dev/svgjs" width="1440" height="560" preserveAspectRatio="none" viewBox="0 0 1440 560"><g mask="url(&quot;#SvgjsMask1004&quot;)" fill="none"><rect width="1440" height="560" x="0" y="0" fill="rgba(255, 255, 255, 1)"></rect><path d="M72.73281549642307 56.38685140555102L-10.321148784867447 24.50542155084754-42.20257863957093 107.55938583213805 40.85138564171959 139.44081568684155z" fill="rgba(191, 87, 0, 0.6)" class="triangle-float2"></path><path d="M938.49 97.83 a185.93 185.93 0 1 0 371.86 0 a185.93 185.93 0 1 0 -371.86 0z" fill="rgba(191, 87, 0, 0.6)" class="triangle-float2"></path><path d="M108.89,533.222C166.279,536.006,211.893,490.72,240.617,440.958C269.336,391.205,285.457,329.235,254.615,280.77C225.257,234.637,163.428,230.001,108.89,233.963C62.282,237.349,18.883,258.981,-4.264,299.576C-27.199,339.8,-22.596,387.493,-2.414,429.166C21.313,478.159,54.518,530.584,108.89,533.222" fill="rgba(191, 87, 0, 0.6)" class="triangle-float3"></path><path d="M813.06 231.4 a109.71 109.71 0 1 0 219.42 0 a109.71 109.71 0 1 0 -219.42 0z" fill="rgba(191, 87, 0, 0.6)" class="triangle-float3"></path><path d="M1186.495,310.936C1223.824,310.424,1252.16,281.403,1270.629,248.958C1288.859,216.933,1300.257,177.199,1280.236,146.262C1261.284,116.976,1221.358,117.781,1186.495,118.95C1154.42,120.026,1120.845,125.499,1103.046,152.204C1083.384,181.704,1081.772,219.941,1098.269,251.321C1115.971,284.992,1148.458,311.457,1186.495,310.936" fill="rgba(191, 87, 0, 0.6)" class="triangle-float1"></path><path d="M694.97 537.06 a183.16 183.16 0 1 0 366.32 0 a183.16 183.16 0 1 0 -366.32 0z" fill="rgba(191, 87, 0, 0.6)" class="triangle-float1"></path></g><defs><mask id="SvgjsMask1004"><rect width="1440" height="560" fill="#ffffff"></rect></mask><style>
                @keyframes float1 {
                    0%{transform: translate(0, 0)}
                    50%{transform: translate(-10px, 0)}
                    100%{transform: translate(0, 0)}
                }

                .triangle-float1 {
                    animation: float1 5s infinite;
                }

                @keyframes float2 {
                    0%{transform: translate(0, 0)}
                    50%{transform: translate(-5px, -5px)}
                    100%{transform: translate(0, 0)}
                }

                .triangle-float2 {
                    animation: float2 4s infinite;
                }

                @keyframes float3 {
                    0%{transform: translate(0, 0)}
                    50%{transform: translate(0, -10px)}
                    100%{transform: translate(0, 0)}
                }

                .triangle-float3 {
                    animation: float3 6s infinite;
                }
            </style></defs></svg>